<svg width="65" height="65" viewBox="0 0 65 65" fill="none" xmlns="http://www.w3.org/2000/svg">
<path d="M0.813477 0.62146H64.8135V64.6215H0.813477V0.62146Z" fill="black"/>
<path d="M7.08482 63.0192V48.652H2.02232V46.109H15.1473V48.652H10.0965V63.0192H7.08482Z" fill="white"/>
<path d="M16.5015 63.0192V46.109H27.4468V48.652H19.525V53.2106H27.0133V55.6598H19.525V60.4762H27.4468V63.0192H16.5015Z" fill="white"/>
<path d="M29.0143 63.0192V61.191L34.651 46.109H38.0611L43.6979 61.191V63.0192H29.0143ZM32.2486 60.4762H40.3111V60.3824L36.3268 48.9918H36.2447L32.2486 60.3824V60.4762Z" fill="white"/>
<path d="M45.2414 63.0192V46.109H48.7335L53.9132 59.0231H53.9953L59.1749 46.109H62.6671V63.0192H59.9484V50.9957H59.8546L54.9796 63.0192H52.9289L48.0539 50.9957H47.9718V63.0192H45.2414Z" fill="white"/>
<path d="M18.0479 40.0856C9.71582 40.0856 4.44238 35.6207 4.44238 28.9059V28.8356C4.44238 22.3668 9.46973 18.5348 18.54 18.0426L28.4189 17.5153V15.1246C28.4189 10.9059 25.1846 7.9176 20.5791 7.9176C16.6064 7.9176 13.7588 9.88635 13.126 12.9801L13.0557 13.2965H5.88379L5.91895 12.8746C6.48145 6.19495 12.3877 1.65979 20.6494 1.65979C26.5205 1.65979 31.0908 4.26135 32.9541 8.37463H33.2354C35.7314 4.01526 40.0557 1.65979 45.6455 1.65979C55.1729 1.65979 61.3955 8.83167 61.3955 20.152V22.7535H35.7666V23.2106C35.7666 29.6442 39.7041 33.8981 45.6455 33.8981C49.8291 33.8981 52.7822 31.5074 53.6611 28.7653L53.7666 28.484H61.0088L60.9385 28.9059C59.8135 34.7418 54.0479 40.0856 45.5049 40.0856C39.5283 40.0856 34.5713 37.2379 32.1104 32.4567H31.7588C28.8408 37.3785 24.0596 40.0856 18.0479 40.0856ZM35.7666 17.4449H53.8018V17.4098C53.8018 11.8903 50.2158 7.84729 44.9072 7.84729C39.6689 7.84729 36.083 11.9957 35.7666 17.3746V17.4449ZM18.7158 34.0387C24.165 34.0387 28.4189 30.277 28.4189 25.5309V22.7887L19.3838 23.316C14.6025 23.5973 11.9307 25.4606 11.9307 28.5895V28.6598C11.9307 31.8942 14.708 34.0387 18.7158 34.0387Z" fill="white"/>
</svg>
