<svg width="117" height="107" viewBox="0 0 117 107" fill="none" xmlns="http://www.w3.org/2000/svg">
<path d="M21.5313 63.3412C18.4624 46.0775 30.125 29.5554 47.5287 26.5138C64.9349 23.4689 81.5936 35.0391 84.6639 52.2995C85.4348 56.6393 85.2733 60.9362 84.3228 64.9778C88.4855 57.6303 90.2133 48.8665 88.6196 39.9194C84.9633 19.3582 65.1953 5.63109 44.4623 9.25215C23.7266 12.8777 9.88425 32.4903 13.5405 53.0495C15.1329 61.9961 19.7761 69.6471 26.2214 75.1393C23.9323 71.6627 22.3009 67.6822 21.5313 63.3412Z" fill="#008F7C"/>
<path d="M5.13293 26.1231C-5.1717 48.0495 4.3908 74.1133 26.5001 84.3398C27.0378 84.5846 27.5782 84.8138 28.1186 85.0428C9.46105 74.8373 1.68508 51.8268 10.8152 32.3991C20.3465 12.1291 44.724 3.32895 65.1639 12.7815C80.8632 20.0418 89.7291 35.9982 88.6769 52.1915C92.052 33.1525 82.3411 13.4891 63.8306 4.93308C41.724 -5.29409 15.4428 4.19348 5.13293 26.1231Z" fill="#008F7C"/>
<path d="M95.6769 44.0535C98.742 61.3139 87.078 77.8373 69.6744 80.8841C52.2682 83.9258 35.6094 72.3581 32.5391 55.0925C31.7695 50.7527 31.9271 46.4571 32.8776 42.4135C28.7175 49.7624 26.991 58.5221 28.5859 67.4726C32.2396 88.0364 52.0104 101.767 72.7408 98.1392C93.475 94.5129 107.318 74.9062 103.659 54.3444C102.073 45.3959 97.4269 37.7455 90.9816 32.2534C93.2706 35.7325 94.8996 39.7103 95.6769 44.0535Z" fill="#008F7C"/>
<path d="M112.068 81.2707C122.372 59.345 112.81 33.2787 90.7004 23.0535C90.1665 22.8054 89.6261 22.5795 89.0832 22.3555C107.742 32.5535 115.518 55.5677 106.385 74.9934C96.8566 95.2642 72.4764 104.065 52.039 94.6105C36.3386 87.3528 27.4741 71.3996 28.5261 55.2005C25.1537 74.2382 34.8594 93.9022 53.371 102.465C75.4764 112.686 101.758 103.199 112.068 81.2707Z" fill="#008F7C"/>
</svg>
